<?xml version="1.0" encoding="UTF-8" standalone="no"?>
<svg
   id="Layer_1"
   viewBox="0 0 260 260"
   version="1.1"
   xmlns="http://www.w3.org/2000/svg"
   xmlns:svg="http://www.w3.org/2000/svg">
  <defs
     id="defs352">
    <style
       id="style345">.cls-1{fill:url(#linear-gradient);}.cls-2{fill:#fff;}.cls-3{fill:#476fb2;}</style>
    <linearGradient
       id="linear-gradient"
       x1="22"
       y1="141"
       x2="260"
       y2="141"
       gradientUnits="userSpaceOnUse">
      <stop
         offset="0"
         stop-color="#000"
         stop-opacity=".2"
         id="stop347" />
      <stop
         offset="1"
         stop-color="#000"
         stop-opacity="0"
         id="stop349" />
    </linearGradient>
    <style
       id="style528">.cls-1{fill:url(#linear-gradient);}.cls-2{fill:#fff;}.cls-3{fill:#7a7363;}</style>
    <linearGradient
       id="linear-gradient-5"
       x1="45"
       y1="140"
       x2="260"
       y2="140"
       gradientUnits="userSpaceOnUse"
       gradientTransform="translate(520.02531,102.30824)">
      <stop
         offset="0"
         stop-color="#000"
         stop-opacity=".2"
         id="stop530" />
      <stop
         offset="1"
         stop-color="#000"
         stop-opacity="0"
         id="stop532" />
    </linearGradient>
    <style
       id="style4795">.cls-1{fill:url(#linear-gradient);}.cls-2{fill:#fff;}.cls-3{fill:#476fb2;}</style>
  </defs>
  <g
     id="layer1">
    <rect
       class="cls-3"
       width="260"
       height="260"
       rx="32"
       ry="32"
       id="rect354"
       x="0"
       y="0" />
  </g>
  <g
     id="layer2">
    <g
       id="g883">
      <path
         class="cls-1"
         d="m 260,228 c 0,-26.03667 0,-52.07333 0,-78.11 -41.65333,-41.65333 -83.30667,-83.306667 -124.96,-124.96 -6.94397,-7.030894 -15.08847,0.03537 -19.86011,5.72011 -24.544868,24.750668 -49.516669,49.094956 -73.780596,74.11308 -25.722058,28.78955 -25.722058,76.13407 0,104.92362 C 57.740624,226.76142 74.760767,243.18994 91.38,260 c 46.63206,-0.10892 93.27793,0.21866 139.9013,-0.16525 C 247.21507,258.49109 260.32772,243.98831 260,228 Z"
         id="path356"
         style="fill:url(#linear-gradient)" />
      <path
         class="cls-2"
         d="m 135.04247,24.930446 c 33.67192,33.863523 67.74636,67.363102 101.16666,101.454134 5.51851,8.51795 -3.86187,14.92469 -9.0809,20.37406 -24.0579,23.8527 -47.71038,48.13136 -72.0358,71.70303 -28.79564,25.70496 -76.131824,25.70496 -104.927461,0 C 20.803722,194.31201 13.290293,148.60852 33.169533,116.25384 43.320567,100.02401 58.63705,88.069292 71.61518,74.215605 88.610397,57.409067 105.24632,40.205146 122.46857,23.649699 c 3.81905,-2.60497 9.36048,-2.049589 12.5739,1.280747 z"
         id="path358" />
      <g
         id="g556"
         transform="matrix(0.55551076,0,0,0.55551076,118.54085,66.514038)">
        <path
           class="cls-2"
           d="m 87.23198,29.482227 c -11.5385,0.747903 -23.676707,-1.520204 -34.82875,1.17125 -2.555165,9.512476 -0.519591,19.937779 -1.17125,29.82875 -8.333333,0 -16.666667,0 -25,0 -0.707523,-9.879863 1.464828,-20.332362 -1.17125,-29.82875 -11.171608,-2.593062 -23.2765006,-0.492493 -34.8287501,-1.17125 -7.7529269,5.292962 -2.4281279,17.889234 -3.9999999,26.505215 1.058229,9.175671 -13.798988,2.435897 -19.857542,4.494785 -9.934688,1.601354 -3.158251,-13.508416 -5.142458,-19.857542 3.420673,-12.520349 -9.86573,-11.824189 -18.562198,-11.142458 -7.555173,1.213143 -22.810858,-4.386323 -21.437802,7.971508 0.260725,25.347179 -0.528117,50.747088 0.406152,76.060425 -0.809657,20.18678 28.838029,10.8936 30.37827,19.84411 -4.717137,22.41035 -10.552079,44.65611 -14.558328,67.17115 3.928797,11.15576 17.276533,15.13851 25.707528,22.77402 13.445662,8.41948 25.02758,20.58493 40.0145029,25.95332 15.5212531,0.8842 25.8465581,-13.2661 38.3698591,-20.42486 10.673637,-8.7413 24.110794,-14.83921 32.809516,-25.48342 0.220798,-15.37709 -6.011984,-30.531 -8.521804,-45.80862 -2.088566,-9.35254 -4.177131,-18.70509 -6.265696,-28.05763 14.740523,2.27759 33.93738,-4.3911 31.65,-22.64767 0,-24.450779 0,-48.901556 0,-73.352333 4.237937,-2.216524 -6.054552,-4.002916 -3.99,-4 z"
           id="path543"
           style="fill:#7a7363;fill-opacity:1" />
      </g>
    </g>
  </g>
</svg>
