<?xml version="1.0" encoding="UTF-8" standalone="no"?>
<svg
   id="Layer_1"
   viewBox="0 0 260 260"
   version="1.1"
   xmlns="http://www.w3.org/2000/svg"
   xmlns:svg="http://www.w3.org/2000/svg">
  <defs
     id="defs352">
    <style
       id="style345">.cls-1{fill:url(#linear-gradient);}.cls-2{fill:#fff;}.cls-3{fill:#476fb2;}</style>
    <linearGradient
       id="linear-gradient"
       x1="22"
       y1="141"
       x2="260"
       y2="141"
       gradientUnits="userSpaceOnUse">
      <stop
         offset="0"
         stop-color="#000"
         stop-opacity=".2"
         id="stop347" />
      <stop
         offset="1"
         stop-color="#000"
         stop-opacity="0"
         id="stop349" />
    </linearGradient>
    <style
       id="style528">.cls-1{fill:url(#linear-gradient);}.cls-2{fill:#fff;}.cls-3{fill:#7a7363;}</style>
    <linearGradient
       id="linear-gradient-5"
       x1="45"
       y1="140"
       x2="260"
       y2="140"
       gradientUnits="userSpaceOnUse"
       gradientTransform="translate(520.02531,102.30824)">
      <stop
         offset="0"
         stop-color="#000"
         stop-opacity=".2"
         id="stop530" />
      <stop
         offset="1"
         stop-color="#000"
         stop-opacity="0"
         id="stop532" />
    </linearGradient>
    <style
       id="style4795">.cls-1{fill:url(#linear-gradient);}.cls-2{fill:#fff;}.cls-3{fill:#476fb2;}</style>
    <style
       id="style5173">.cls-1{fill:url(#linear-gradient);}.cls-2{fill:#006b6d;}.cls-3{fill:#fff;}</style>
    <style
       id="style10758">.cls-1{fill:url(#linear-gradient);}.cls-2{fill:#007eb8;}.cls-3{fill:#fff;}</style>
  </defs>
  <g
     id="layer1">
    <rect
       class="cls-3"
       width="260"
       height="260"
       rx="32"
       ry="32"
       id="rect354"
       x="0"
       y="0"
       style="fill:#007eb8;fill-opacity:1" />
    <path
       class="cls-1"
       d="m 260,228 c 0,-26.03667 0,-52.07333 0,-78.11 -41.65333,-41.65333 -83.30667,-83.306667 -124.96,-124.96 -6.94397,-7.030894 -15.08847,0.03537 -19.86011,5.72011 -24.544868,24.750668 -49.516669,49.094956 -73.780596,74.11308 -25.722058,28.78955 -25.722058,76.13407 0,104.92362 C 57.740624,226.76142 74.760767,243.18994 91.38,260 c 46.63206,-0.10892 93.27793,0.21866 139.9013,-0.16525 C 247.21507,258.49109 260.32772,243.98831 260,228 Z"
       id="path356"
       style="fill:url(#linear-gradient)" />
    <path
       class="cls-2"
       d="m 135.04247,24.930446 c 33.67192,33.863523 67.74636,67.363102 101.16666,101.454134 5.51851,8.51795 -3.86187,14.92469 -9.0809,20.37406 -24.0579,23.8527 -47.71038,48.13136 -72.0358,71.70303 -28.79564,25.70496 -76.131824,25.70496 -104.927461,0 C 20.803722,194.31201 13.290293,148.60852 33.169533,116.25384 43.320567,100.02401 58.63705,88.069292 71.61518,74.215605 88.610397,57.409067 105.24632,40.205146 122.46857,23.649699 c 3.81905,-2.60497 9.36048,-2.049589 12.5739,1.280747 z"
       id="path358"
       style="fill:#ffffff;fill-opacity:1" />
  </g>
  <g
     id="layer2">
    <g
       id="g556"
       transform="matrix(0.55551076,0,0,0.55551076,118.54085,66.514038)">
      <path
         class="cls-2"
         d="m 87.23198,29.482227 h -32 c -2.21,0 -4,1.79 -4,4 v 27 h -25 v -27 c 0,-2.21 -1.79,-4 -4,-4 H -9.7680201 c -2.2099999,0 -3.9999999,1.79 -3.9999999,4 v 27 h -25 v -27 c 0,-2.21 -1.79,-4 -4,-4 h -32 c -2.21,0 -4,1.79 -4,4 v 76.000003 c 0,11.05 8.95,20 20,20 h 11.65 l -15.21,68.11 c -0.88,3.92 0.68,7.98 3.95,10.32 l 52.9799999,37.85 c 6.95,4.97 16.3000001,4.97 23.2500001,0 l 52.98,-37.85 c 3.27,-2.33 4.82,-6.4 3.95,-10.32 l -15.21,-68.11 h 11.65 c 11.05,0 20,-8.95 20,-20 V 33.482227 c 0,-2.21 -1.79,-4 -4,-4 z"
         id="path543"
         style="fill:#7a7363;fill-opacity:1" />
    </g>
  </g>
</svg>
